# Blender v2.74 (sub 0) OBJ File: 'bullet.blend'
# www.blender.org
mtllib bullet.mtl
o Cylinder
v 0.000000 -0.041334 -0.020000
v 0.000000 0.019608 -0.020000
v 0.003902 -0.041334 -0.019616
v 0.003902 0.019608 -0.019616
v 0.007654 -0.041334 -0.018478
v 0.007654 0.019608 -0.018478
v 0.011111 -0.041334 -0.016629
v 0.011111 0.019608 -0.016629
v 0.014142 -0.041334 -0.014142
v 0.014142 0.019608 -0.014142
v 0.016629 -0.041334 -0.011111
v 0.016629 0.019608 -0.011111
v 0.018478 -0.041334 -0.007654
v 0.018478 0.019608 -0.007654
v 0.019616 -0.041334 -0.003902
v 0.019616 0.019608 -0.003902
v 0.020000 -0.041334 -0.000000
v 0.020000 0.019608 -0.000000
v 0.019616 -0.041334 0.003902
v 0.019616 0.019608 0.003902
v 0.018478 -0.041334 0.007654
v 0.018478 0.019608 0.007654
v 0.016629 -0.041334 0.011111
v 0.016629 0.019608 0.011111
v 0.014142 -0.041334 0.014142
v 0.014142 0.019608 0.014142
v 0.011111 -0.041334 0.016629
v 0.011111 0.019608 0.016629
v 0.007654 -0.041334 0.018478
v 0.007654 0.019608 0.018478
v 0.003902 -0.041334 0.019616
v 0.003902 0.019608 0.019616
v -0.000000 -0.041334 0.020000
v -0.000000 0.019608 0.020000
v -0.003902 -0.041334 0.019616
v -0.003902 0.019608 0.019616
v -0.007654 -0.041334 0.018478
v -0.007654 0.019608 0.018478
v -0.011111 -0.041334 0.016629
v -0.011111 0.019608 0.016629
v -0.014142 -0.041334 0.014142
v -0.014142 0.019608 0.014142
v -0.016629 -0.041334 0.011111
v -0.016629 0.019608 0.011111
v -0.018478 -0.041334 0.007654
v -0.018478 0.019608 0.007654
v -0.019616 -0.041334 0.003902
v -0.019616 0.019608 0.003902
v -0.020000 -0.041334 -0.000000
v -0.020000 0.019608 -0.000000
v -0.019616 -0.041334 -0.003902
v -0.019616 0.019608 -0.003902
v -0.018478 -0.041334 -0.007654
v -0.018478 0.019608 -0.007654
v -0.016629 -0.041334 -0.011111
v -0.016629 0.019608 -0.011111
v -0.014142 -0.041334 -0.014142
v -0.014142 0.019608 -0.014142
v -0.011111 -0.041334 -0.016629
v -0.011111 0.019608 -0.016629
v -0.007654 -0.041334 -0.018478
v -0.007654 0.019608 -0.018478
v -0.003902 -0.041334 -0.019616
v -0.003902 0.019608 -0.019616
v 0.001695 0.052384 -0.008522
v 0.000000 0.052384 -0.008688
v 0.003325 0.052384 -0.008027
v 0.004827 0.052384 -0.007224
v 0.006144 0.052384 -0.006144
v 0.007224 0.052384 -0.004827
v 0.008027 0.052384 -0.003325
v 0.008522 0.052384 -0.001695
v 0.008688 0.052384 -0.000000
v 0.008522 0.052384 0.001695
v 0.008027 0.052384 0.003325
v 0.007224 0.052384 0.004827
v 0.006144 0.052384 0.006144
v 0.004827 0.052384 0.007224
v 0.003325 0.052384 0.008027
v 0.001695 0.052384 0.008522
v -0.000000 0.052384 0.008688
v -0.001695 0.052384 0.008522
v -0.003325 0.052384 0.008027
v -0.004827 0.052384 0.007224
v -0.006144 0.052384 0.006144
v -0.007224 0.052384 0.004827
v -0.008027 0.052384 0.003325
v -0.008522 0.052384 0.001695
v -0.008688 0.052384 -0.000000
v -0.008522 0.052384 -0.001695
v -0.008027 0.052384 -0.003325
v -0.007224 0.052384 -0.004827
v -0.006144 0.052384 -0.006144
v -0.004827 0.052384 -0.007224
v -0.003325 0.052384 -0.008027
v -0.001695 0.052384 -0.008522
v -0.012786 0.032601 -0.012786
v -0.015035 0.032601 -0.010046
v -0.003528 0.032601 0.017735
v -0.000000 0.032601 0.018082
v 0.016706 0.032601 -0.006920
v 0.015035 0.032601 -0.010046
v -0.003528 0.032601 -0.017735
v -0.006920 0.032601 -0.016706
v -0.012786 0.032601 0.012786
v -0.010046 0.032601 0.015035
v 0.017735 0.032601 0.003528
v 0.018082 0.032601 -0.000000
v -0.017735 0.032601 0.003528
v -0.016706 0.032601 0.006920
v 0.012786 0.032601 0.012786
v 0.015035 0.032601 0.010046
v -0.016706 0.032601 -0.006920
v -0.017735 0.032601 -0.003528
v 0.012786 0.032601 -0.012786
v 0.010046 0.032601 -0.015035
v 0.003528 0.032601 0.017735
v 0.006920 0.032601 0.016706
v -0.010046 0.032601 -0.015035
v -0.006920 0.032601 0.016706
v 0.017735 0.032601 -0.003528
v 0.000000 0.032601 -0.018082
v -0.015035 0.032601 0.010046
v 0.016706 0.032601 0.006920
v -0.018082 0.032601 -0.000000
v 0.006920 0.032601 -0.016706
v 0.003528 0.032601 -0.017735
v 0.010046 0.032601 0.015035
v -0.012969 0.041824 -0.008666
v -0.000000 0.041824 0.015598
v 0.012969 0.041824 -0.008666
v -0.005969 0.041824 -0.014410
v -0.008666 0.041824 0.012969
v 0.015598 0.041824 -0.000000
v -0.014410 0.041824 0.005969
v 0.012969 0.041824 0.008666
v -0.015298 0.041824 -0.003043
v 0.008666 0.041824 -0.012969
v 0.005969 0.041824 0.014410
v 0.003043 0.041824 -0.015298
v -0.011029 0.041824 -0.011029
v -0.003043 0.041824 0.015298
v 0.014410 0.041824 -0.005969
v -0.003043 0.041824 -0.015298
v -0.011029 0.041824 0.011029
v 0.015298 0.041824 0.003043
v -0.015298 0.041824 0.003043
v 0.011029 0.041824 0.011029
v -0.014410 0.041824 -0.005969
v 0.011029 0.041824 -0.011029
v 0.003043 0.041824 0.015298
v -0.008666 0.041824 -0.012969
v -0.005969 0.041824 0.014410
v 0.015298 0.041824 -0.003043
v 0.000000 0.041824 -0.015598
v -0.012969 0.041824 0.008666
v 0.014410 0.041824 0.005969
v -0.015598 0.041824 -0.000000
v 0.005969 0.041824 -0.014410
v 0.008666 0.041824 0.012969
v 0.000000 -0.041334 -0.020000
v 0.003902 -0.041334 -0.019616
v 0.007654 -0.041334 -0.018478
v 0.011111 -0.041334 -0.016629
v 0.014142 -0.041334 -0.014142
v 0.016629 -0.041334 -0.011111
v 0.018478 -0.041334 -0.007654
v 0.019616 -0.041334 -0.003902
v 0.020000 -0.041334 -0.000000
v 0.019616 -0.041334 0.003902
v 0.018478 -0.041334 0.007654
v 0.016629 -0.041334 0.011111
v 0.014142 -0.041334 0.014142
v 0.011111 -0.041334 0.016629
v 0.007654 -0.041334 0.018478
v 0.003902 -0.041334 0.019616
v -0.000000 -0.041334 0.020000
v -0.003902 -0.041334 0.019616
v -0.007654 -0.041334 0.018478
v -0.011111 -0.041334 0.016629
v -0.014142 -0.041334 0.014142
v -0.016629 -0.041334 0.011111
v -0.018478 -0.041334 0.007654
v -0.019616 -0.041334 0.003902
v -0.020000 -0.041334 -0.000000
v -0.019616 -0.041334 -0.003902
v -0.018478 -0.041334 -0.007654
v -0.016629 -0.041334 -0.011111
v -0.014142 -0.041334 -0.014142
v -0.011111 -0.041334 -0.016629
v -0.007654 -0.041334 -0.018478
v -0.003902 -0.041334 -0.019616
v 0.001695 0.052384 -0.008522
v 0.000000 0.052384 -0.008688
v 0.003325 0.052384 -0.008027
v 0.004827 0.052384 -0.007224
v 0.006144 0.052384 -0.006144
v 0.007224 0.052384 -0.004827
v 0.008027 0.052384 -0.003325
v 0.008522 0.052384 -0.001695
v 0.008688 0.052384 -0.000000
v 0.008522 0.052384 0.001695
v 0.008027 0.052384 0.003325
v 0.007224 0.052384 0.004827
v 0.006144 0.052384 0.006144
v 0.004827 0.052384 0.007224
v 0.003325 0.052384 0.008027
v 0.001695 0.052384 0.008522
v -0.000000 0.052384 0.008688
v -0.001695 0.052384 0.008522
v -0.003325 0.052384 0.008027
v -0.004827 0.052384 0.007224
v -0.006144 0.052384 0.006144
v -0.007224 0.052384 0.004827
v -0.008027 0.052384 0.003325
v -0.008522 0.052384 0.001695
v -0.008688 0.052384 -0.000000
v -0.008522 0.052384 -0.001695
v -0.008027 0.052384 -0.003325
v -0.007224 0.052384 -0.004827
v -0.006144 0.052384 -0.006144
v -0.004827 0.052384 -0.007224
v -0.003325 0.052384 -0.008027
v -0.001695 0.052384 -0.008522
vn 0.000000 0.072800 -0.997300
vn 0.194600 0.072800 -0.978100
vn 0.195100 0.000000 -0.980800
vn 0.381700 0.072800 -0.921400
vn 0.382700 0.000000 -0.923900
vn 0.554100 0.072800 -0.829200
vn 0.555600 0.000000 -0.831400
vn 0.705200 0.072800 -0.705200
vn 0.707100 0.000000 -0.707100
vn 0.829200 0.072800 -0.554100
vn 0.831400 0.000000 -0.555600
vn 0.921400 0.072800 -0.381700
vn 0.923900 0.000000 -0.382700
vn 0.978100 0.072800 -0.194600
vn 0.980800 0.000000 -0.195100
vn 0.997300 0.072800 0.000000
vn 1.000000 0.000000 0.000000
vn 0.978100 0.072800 0.194600
vn 0.980800 0.000000 0.195100
vn 0.921400 0.072800 0.381700
vn 0.923900 0.000000 0.382700
vn 0.829200 0.072800 0.554100
vn 0.831400 0.000000 0.555600
vn 0.705200 0.072800 0.705200
vn 0.707100 0.000000 0.707100
vn 0.554100 0.072800 0.829200
vn 0.555600 0.000000 0.831400
vn 0.381700 0.072800 0.921400
vn 0.382700 0.000000 0.923900
vn 0.194600 0.072800 0.978100
vn 0.195100 0.000000 0.980800
vn 0.000000 0.072800 0.997300
vn 0.000000 0.000000 1.000000
vn -0.194600 0.072800 0.978100
vn -0.195100 0.000000 0.980800
vn -0.381700 0.072800 0.921400
vn -0.382700 0.000000 0.923900
vn -0.554100 0.072800 0.829200
vn -0.555600 0.000000 0.831400
vn -0.705200 0.072800 0.705200
vn -0.707100 0.000000 0.707100
vn -0.829200 0.072800 0.554100
vn -0.831400 0.000000 0.555600
vn -0.921400 0.072800 0.381700
vn -0.923900 0.000000 0.382700
vn -0.978100 0.072800 0.194600
vn -0.980800 0.000000 0.195100
vn -0.997300 0.072800 0.000000
vn -1.000000 0.000000 0.000000
vn -0.978100 0.072800 -0.194600
vn -0.980800 0.000000 -0.195100
vn -0.921400 0.072800 -0.381700
vn -0.923900 0.000000 -0.382700
vn -0.829200 0.072800 -0.554100
vn -0.831400 0.000000 -0.555600
vn -0.705200 0.072800 -0.705200
vn -0.707100 0.000000 -0.707100
vn -0.554100 0.072800 -0.829200
vn -0.555600 0.000000 -0.831400
vn -0.381700 0.072800 -0.921400
vn -0.382700 0.000000 -0.923900
vn -0.760100 0.405300 -0.507900
vn -0.695800 0.547500 -0.464900
vn -0.591700 0.547500 -0.591700
vn -0.194600 0.072800 -0.978100
vn 0.000000 0.000000 -1.000000
vn -0.195100 0.000000 -0.980800
vn 0.000000 -1.000000 0.000000
vn 0.000000 1.000000 0.000000
vn 0.000000 0.405300 0.914200
vn 0.000000 0.547500 0.836800
vn -0.163200 0.547500 0.820700
vn 0.844600 0.405300 -0.349800
vn 0.760100 0.405300 -0.507900
vn 0.695800 0.547500 -0.464900
vn -0.349800 0.405300 -0.844600
vn -0.320200 0.547500 -0.773100
vn -0.163200 0.547500 -0.820700
vn -0.507900 0.405300 0.760100
vn -0.464900 0.547500 0.695800
vn -0.591700 0.547500 0.591700
vn 0.914200 0.405300 0.000000
vn 0.836800 0.547500 0.000000
vn 0.820700 0.547500 0.163200
vn -0.896600 0.405300 0.178300
vn -0.844600 0.405300 0.349800
vn -0.773100 0.547500 0.320200
vn 0.760100 0.405300 0.507900
vn 0.695800 0.547500 0.464900
vn 0.591700 0.547500 0.591700
vn -0.844600 0.405300 -0.349800
vn -0.896600 0.405300 -0.178300
vn -0.820700 0.547500 -0.163200
vn 0.507900 0.405300 -0.760100
vn 0.464900 0.547500 -0.695800
vn 0.591700 0.547500 -0.591700
vn 0.349800 0.405300 0.844600
vn 0.320200 0.547500 0.773100
vn 0.163200 0.547500 0.820700
vn -0.507900 0.405300 -0.760100
vn -0.646400 0.405300 -0.646400
vn -0.178300 0.405300 0.896600
vn -0.320200 0.547500 0.773100
vn 0.773100 0.547500 -0.320200
vn 0.820700 0.547500 -0.163200
vn -0.178300 0.405300 -0.896600
vn 0.000000 0.547500 -0.836800
vn -0.646400 0.405300 0.646400
vn -0.695800 0.547500 0.464900
vn 0.896600 0.405300 0.178300
vn 0.773100 0.547500 0.320200
vn -0.820700 0.547500 0.163200
vn -0.836800 0.547500 0.000000
vn 0.349800 0.405300 -0.844600
vn 0.178300 0.405300 -0.896600
vn 0.163200 0.547500 -0.820700
vn 0.646400 0.405300 0.646400
vn 0.464900 0.547500 0.695800
vn -0.773100 0.547500 -0.320200
vn 0.646400 0.405300 -0.646400
vn 0.178300 0.405300 0.896600
vn -0.464900 0.547500 -0.695800
vn -0.349800 0.405300 0.844600
vn 0.000000 0.405300 -0.914200
vn 0.896600 0.405300 -0.178300
vn -0.760100 0.405300 0.507900
vn 0.844600 0.405300 0.349800
vn -0.914200 0.405300 0.000000
vn 0.320200 0.547500 -0.773100
vn 0.507900 0.405300 0.760100
vn 0.544000 0.202700 0.814200
vn 0.374700 0.202700 0.904700
vn 0.374700 0.202700 -0.904700
vn 0.544000 0.202700 -0.814200
vn -0.979200 0.202700 0.000000
vn -0.960400 0.202700 -0.191000
vn 0.904700 0.202700 0.374700
vn -0.814200 0.202700 0.544000
vn -0.904700 0.202700 0.374700
vn 0.960400 0.202700 -0.191000
vn 0.000000 0.202700 -0.979200
vn 0.191000 0.202700 -0.960400
vn -0.374700 0.202700 0.904700
vn -0.544000 0.202700 0.814200
vn -0.544000 0.202700 -0.814200
vn -0.374700 0.202700 -0.904700
vn 0.191000 0.202700 0.960400
vn 0.692400 0.202700 -0.692400
vn 0.814200 0.202700 -0.544000
vn -0.904700 0.202700 -0.374700
vn -0.814200 0.202700 -0.544000
vn 0.692400 0.202700 0.692400
vn -0.960400 0.202700 0.191000
vn 0.960400 0.202700 0.191000
vn -0.692400 0.202700 0.692400
vn -0.191000 0.202700 -0.960400
vn 0.904700 0.202700 -0.374700
vn -0.191000 0.202700 0.960400
vn -0.692400 0.202700 -0.692400
vn 0.814200 0.202700 0.544000
vn 0.979200 0.202700 0.000000
vn 0.000000 0.202700 0.979200
usemtl None
s 1
f 2//1 4//2 3//3
f 4//2 6//4 5//5
f 6//4 8//6 7//7
f 8//6 10//8 9//9
f 10//8 12//10 11//11
f 12//10 14//12 13//13
f 14//12 16//14 15//15
f 16//14 18//16 17//17
f 18//16 20//18 19//19
f 20//18 22//20 21//21
f 22//20 24//22 23//23
f 24//22 26//24 25//25
f 26//24 28//26 27//27
f 28//26 30//28 29//29
f 30//28 32//30 31//31
f 32//30 34//32 33//33
f 34//32 36//34 35//35
f 36//34 38//36 37//37
f 38//36 40//38 39//39
f 40//38 42//40 41//41
f 42//40 44//42 43//43
f 44//42 46//44 45//45
f 46//44 48//46 47//47
f 48//46 50//48 49//49
f 50//48 52//50 51//51
f 52//50 54//52 53//53
f 54//52 56//54 55//55
f 56//54 58//56 57//57
f 58//56 60//58 59//59
f 60//58 62//60 61//61
f 129//62 220//63 93//64
f 64//65 2//1 1//66
f 62//60 64//65 63//67
f 161//68 169//68 177//68
f 65//69 90//69 86//69
f 130//70 209//71 210//72
f 143//73 131//74 198//75
f 132//76 223//77 224//78
f 133//79 212//80 213//81
f 134//82 201//83 202//84
f 147//85 135//86 215//87
f 136//88 204//89 205//90
f 149//91 137//92 218//93
f 138//94 196//95 197//96
f 139//97 207//98 208//99
f 152//100 141//101 93//64
f 142//102 210//72 211//103
f 143//73 199//104 200//105
f 144//106 224//78 194//107
f 145//108 213//81 214//109
f 146//110 202//84 203//111
f 147//85 216//112 217//113
f 159//114 140//115 193//116
f 148//117 205//90 206//118
f 129//62 149//91 219//119
f 150//120 197//96 198//75
f 151//121 208//99 209//71
f 152//100 222//122 223//77
f 133//79 153//123 211//103
f 155//124 194//107 193//116
f 134//82 154//125 200//105
f 156//126 214//109 215//87
f 157//127 203//111 204//89
f 137//92 158//128 217//113
f 159//114 195//129 196//95
f 139//97 160//130 206//118
f 28//26 128//131 118//132
f 6//4 126//133 116//134
f 50//48 125//135 114//136
f 24//22 22//20 124//137
f 44//42 123//138 110//139
f 18//16 16//14 121//140
f 2//1 122//141 127//142
f 38//36 120//143 106//144
f 60//58 119//145 104//146
f 34//32 32//30 117//147
f 10//8 115//148 102//149
f 54//52 113//150 98//151
f 26//24 111//152 128//131
f 4//2 127//142 126//133
f 50//48 48//46 109//153
f 20//18 107//154 124//137
f 44//42 42//40 105//155
f 64//65 103//156 122//141
f 14//12 101//157 121//140
f 36//34 99//158 120//143
f 58//56 97//159 119//145
f 30//28 118//132 117//147
f 10//8 8//6 116//134
f 54//52 52//50 114//136
f 24//22 112//160 111//152
f 46//44 110//139 109//153
f 20//18 18//16 108//161
f 40//38 106//144 105//155
f 64//65 62//60 104//146
f 12//10 102//149 101//157
f 34//32 100//162 99//158
f 56//54 98//151 97//159
f 118//132 128//131 160//130
f 126//133 159//114 138//94
f 125//135 158//128 137//92
f 124//137 157//127 136//88
f 110//139 123//138 156//126
f 121//140 154//125 134//82
f 122//141 155//124 140//115
f 120//143 153//123 133//79
f 104//146 119//145 152//100
f 100//162 117//147 151//121
f 115//148 150//120 131//74
f 113//150 149//91 129//62
f 111//152 148//117 160//130
f 126//133 127//142 140//115
f 109//153 147//85 158//128
f 107//154 146//110 157//127
f 105//155 145//108 156//126
f 103//156 144//106 155//124
f 101//157 143//73 154//125
f 99//158 142//102 153//123
f 97//159 141//101 152//100
f 118//132 139//97 151//121
f 116//134 138//94 150//120
f 113//150 114//136 137//92
f 112//160 136//88 148//117
f 110//139 135//86 147//85
f 108//161 134//82 146//110
f 106//144 133//79 145//108
f 103//156 104//146 132//76
f 101//157 102//149 131//74
f 100//162 130//70 142//102
f 97//159 98//151 129//62
f 1//66 2//1 3//3
f 3//3 4//2 5//5
f 5//5 6//4 7//7
f 7//7 8//6 9//9
f 9//9 10//8 11//11
f 11//11 12//10 13//13
f 13//13 14//12 15//15
f 15//15 16//14 17//17
f 17//17 18//16 19//19
f 19//19 20//18 21//21
f 21//21 22//20 23//23
f 23//23 24//22 25//25
f 25//25 26//24 27//27
f 27//27 28//26 29//29
f 29//29 30//28 31//31
f 31//31 32//30 33//33
f 33//33 34//32 35//35
f 35//35 36//34 37//37
f 37//37 38//36 39//39
f 39//39 40//38 41//41
f 41//41 42//40 43//43
f 43//43 44//42 45//45
f 45//45 46//44 47//47
f 47//47 48//46 49//49
f 49//49 50//48 51//51
f 51//51 52//50 53//53
f 53//53 54//52 55//55
f 55//55 56//54 57//57
f 57//57 58//56 59//59
f 59//59 60//58 61//61
f 141//101 129//62 93//64
f 63//67 64//65 1//66
f 61//61 62//60 63//67
f 189//68 192//68 161//68
f 189//68 190//68 191//68
f 187//68 188//68 189//68
f 185//68 186//68 187//68
f 181//68 184//68 185//68
f 181//68 182//68 183//68
f 179//68 180//68 181//68
f 177//68 178//68 179//68
f 173//68 176//68 177//68
f 173//68 174//68 175//68
f 171//68 172//68 173//68
f 169//68 170//68 171//68
f 167//68 168//68 169//68
f 165//68 166//68 167//68
f 163//68 164//68 165//68
f 165//68 162//68 163//68
f 189//68 191//68 192//68
f 185//68 187//68 189//68
f 181//68 183//68 184//68
f 177//68 179//68 181//68
f 173//68 175//68 176//68
f 177//68 171//68 173//68
f 161//68 167//68 169//68
f 161//68 162//68 165//68
f 185//68 189//68 161//68
f 177//68 181//68 185//68
f 169//68 171//68 177//68
f 161//68 165//68 167//68
f 177//68 185//68 161//68
f 70//69 67//69 65//69
f 70//69 69//69 68//69
f 74//69 71//69 70//69
f 74//69 73//69 72//69
f 76//69 75//69 74//69
f 78//69 77//69 76//69
f 80//69 79//69 78//69
f 78//69 81//69 80//69
f 84//69 83//69 82//69
f 86//69 85//69 84//69
f 88//69 87//69 86//69
f 86//69 89//69 88//69
f 94//69 91//69 90//69
f 94//69 221//69 92//69
f 96//69 95//69 94//69
f 65//69 66//69 96//69
f 70//69 68//69 67//69
f 74//69 72//69 71//69
f 78//69 76//69 74//69
f 82//69 81//69 78//69
f 86//69 84//69 82//69
f 90//69 89//69 86//69
f 94//69 92//69 91//69
f 90//69 96//69 94//69
f 74//69 70//69 65//69
f 82//69 78//69 74//69
f 65//69 86//69 82//69
f 65//69 96//69 90//69
f 82//69 74//69 65//69
f 142//102 130//70 210//72
f 199//104 143//73 198//75
f 144//106 132//76 224//78
f 145//108 133//79 213//81
f 146//110 134//82 202//84
f 216//112 147//85 215//87
f 148//117 136//88 205//90
f 219//119 149//91 218//93
f 150//120 138//94 197//96
f 151//121 139//97 208//99
f 222//122 152//100 93//64
f 153//123 142//102 211//103
f 154//125 143//73 200//105
f 155//124 144//106 194//107
f 156//126 145//108 214//109
f 157//127 146//110 203//111
f 158//128 147//85 217//113
f 195//129 159//114 193//116
f 160//130 148//117 206//118
f 220//63 129//62 219//119
f 131//74 150//120 198//75
f 130//70 151//121 209//71
f 132//76 152//100 223//77
f 212//80 133//79 211//103
f 140//115 155//124 193//116
f 201//83 134//82 200//105
f 135//86 156//126 215//87
f 136//88 157//127 204//89
f 218//93 137//92 217//113
f 138//94 159//114 196//95
f 207//98 139//97 206//118
f 30//28 28//26 118//132
f 8//6 6//4 116//134
f 52//50 50//48 114//136
f 112//160 24//22 124//137
f 46//44 44//42 110//139
f 108//161 18//16 121//140
f 4//2 2//1 127//142
f 40//38 38//36 106//144
f 62//60 60//58 104//146
f 100//162 34//32 117//147
f 12//10 10//8 102//149
f 56//54 54//52 98//151
f 28//26 26//24 128//131
f 6//4 4//2 126//133
f 125//135 50//48 109//153
f 22//20 20//18 124//137
f 123//138 44//42 105//155
f 2//1 64//65 122//141
f 16//14 14//12 121//140
f 38//36 36//34 120//143
f 60//58 58//56 119//145
f 32//30 30//28 117//147
f 115//148 10//8 116//134
f 113//150 54//52 114//136
f 26//24 24//22 111//152
f 48//46 46//44 109//153
f 107//154 20//18 108//161
f 42//40 40//38 105//155
f 103//156 64//65 104//146
f 14//12 12//10 101//157
f 36//34 34//32 99//158
f 58//56 56//54 97//159
f 139//97 118//132 160//130
f 116//134 126//133 138//94
f 114//136 125//135 137//92
f 112//160 124//137 136//88
f 135//86 110//139 156//126
f 108//161 121//140 134//82
f 127//142 122//141 140//115
f 106//144 120//143 133//79
f 132//76 104//146 152//100
f 130//70 100//162 151//121
f 102//149 115//148 131//74
f 98//151 113//150 129//62
f 128//131 111//152 160//130
f 159//114 126//133 140//115
f 125//135 109//153 158//128
f 124//137 107//154 157//127
f 123//138 105//155 156//126
f 122//141 103//156 155//124
f 121//140 101//157 154//125
f 120//143 99//158 153//123
f 119//145 97//159 152//100
f 117//147 118//132 151//121
f 115//148 116//134 150//120
f 149//91 113//150 137//92
f 111//152 112//160 148//117
f 109//153 110//139 147//85
f 107//154 108//161 146//110
f 105//155 106//144 145//108
f 144//106 103//156 132//76
f 143//73 101//157 131//74
f 99//158 100//162 142//102
f 141//101 97//159 129//62
