# Blender v2.74 (sub 0) OBJ File: 'bullet.blend'
# www.blender.org
mtllib bullet.mtl
o Cylinder
v -0.000000 0.062001 -0.030000
v 0.000000 -0.029412 -0.030000
v -0.005853 0.062001 -0.029424
v -0.005853 -0.029412 -0.029424
v -0.011481 0.062001 -0.027716
v -0.011480 -0.029412 -0.027716
v -0.016667 0.062001 -0.024944
v -0.016667 -0.029412 -0.024944
v -0.021213 0.062001 -0.021213
v -0.021213 -0.029412 -0.021213
v -0.024944 0.062001 -0.016667
v -0.024944 -0.029412 -0.016667
v -0.027716 0.062001 -0.011481
v -0.027716 -0.029412 -0.011481
v -0.029424 0.062001 -0.005853
v -0.029424 -0.029412 -0.005853
v -0.030000 0.062001 -0.000000
v -0.030000 -0.029412 -0.000000
v -0.029424 0.062001 0.005853
v -0.029424 -0.029412 0.005853
v -0.027716 0.062001 0.011480
v -0.027716 -0.029412 0.011480
v -0.024944 0.062001 0.016667
v -0.024944 -0.029412 0.016667
v -0.021213 0.062001 0.021213
v -0.021213 -0.029412 0.021213
v -0.016667 0.062001 0.024944
v -0.016667 -0.029412 0.024944
v -0.011481 0.062001 0.027716
v -0.011480 -0.029412 0.027716
v -0.005853 0.062001 0.029424
v -0.005853 -0.029412 0.029424
v 0.000000 0.062001 0.030000
v 0.000000 -0.029412 0.030000
v 0.005853 0.062001 0.029424
v 0.005853 -0.029412 0.029424
v 0.011481 0.062001 0.027716
v 0.011481 -0.029412 0.027716
v 0.016667 0.062001 0.024944
v 0.016667 -0.029412 0.024944
v 0.021213 0.062001 0.021213
v 0.021213 -0.029412 0.021213
v 0.024944 0.062001 0.016667
v 0.024944 -0.029412 0.016667
v 0.027716 0.062001 0.011480
v 0.027716 -0.029412 0.011480
v 0.029424 0.062001 0.005853
v 0.029424 -0.029412 0.005853
v 0.030000 0.062001 -0.000000
v 0.030000 -0.029412 -0.000000
v 0.029424 0.062001 -0.005853
v 0.029424 -0.029412 -0.005853
v 0.027716 0.062001 -0.011481
v 0.027716 -0.029412 -0.011481
v 0.024944 0.062001 -0.016667
v 0.024944 -0.029412 -0.016667
v 0.021213 0.062001 -0.021213
v 0.021213 -0.029412 -0.021213
v 0.016667 0.062001 -0.024944
v 0.016667 -0.029412 -0.024944
v 0.011480 0.062001 -0.027716
v 0.011480 -0.029412 -0.027716
v 0.005853 0.062001 -0.029424
v 0.005853 -0.029412 -0.029424
v -0.002543 -0.078575 -0.012782
v 0.000000 -0.078575 -0.013033
v -0.004987 -0.078575 -0.012041
v -0.007241 -0.078575 -0.010836
v -0.009216 -0.078575 -0.009216
v -0.010836 -0.078575 -0.007241
v -0.012041 -0.078575 -0.004987
v -0.012782 -0.078575 -0.002543
v -0.013033 -0.078575 -0.000000
v -0.012782 -0.078575 0.002543
v -0.012041 -0.078575 0.004987
v -0.010836 -0.078575 0.007241
v -0.009216 -0.078575 0.009216
v -0.007241 -0.078575 0.010836
v -0.004987 -0.078575 0.012041
v -0.002543 -0.078575 0.012782
v 0.000000 -0.078575 0.013033
v 0.002543 -0.078575 0.012782
v 0.004987 -0.078575 0.012041
v 0.007241 -0.078575 0.010836
v 0.009216 -0.078575 0.009216
v 0.010836 -0.078575 0.007241
v 0.012041 -0.078575 0.004987
v 0.012782 -0.078575 0.002543
v 0.013033 -0.078575 -0.000000
v 0.012782 -0.078575 -0.002543
v 0.012041 -0.078575 -0.004987
v 0.010836 -0.078575 -0.007241
v 0.009216 -0.078575 -0.009216
v 0.007241 -0.078575 -0.010836
v 0.004987 -0.078575 -0.012041
v 0.002543 -0.078575 -0.012782
v 0.019179 -0.048902 -0.019179
v 0.022553 -0.048902 -0.015069
v 0.005292 -0.048902 0.026603
v 0.000000 -0.048902 0.027124
v -0.025059 -0.048902 -0.010380
v -0.022553 -0.048902 -0.015069
v 0.005292 -0.048902 -0.026603
v 0.010380 -0.048902 -0.025059
v 0.019179 -0.048902 0.019179
v 0.015069 -0.048902 0.022553
v -0.026603 -0.048902 0.005292
v -0.027124 -0.048902 -0.000000
v 0.026603 -0.048902 0.005292
v 0.025059 -0.048902 0.010380
v -0.019179 -0.048902 0.019179
v -0.022553 -0.048902 0.015069
v 0.025059 -0.048902 -0.010380
v 0.026603 -0.048902 -0.005292
v -0.019179 -0.048902 -0.019179
v -0.015069 -0.048902 -0.022553
v -0.005292 -0.048902 0.026603
v -0.010380 -0.048902 0.025059
v 0.015069 -0.048902 -0.022553
v 0.010380 -0.048902 0.025059
v -0.026602 -0.048902 -0.005292
v 0.000000 -0.048902 -0.027124
v 0.022553 -0.048902 0.015069
v -0.025059 -0.048902 0.010380
v 0.027124 -0.048902 -0.000000
v -0.010380 -0.048902 -0.025059
v -0.005292 -0.048902 -0.026603
v -0.015069 -0.048902 0.022553
v 0.019453 -0.062736 -0.012998
v 0.000000 -0.062736 0.023396
v -0.019453 -0.062736 -0.012998
v 0.008953 -0.062736 -0.021616
v 0.012998 -0.062736 0.019453
v -0.023396 -0.062736 -0.000000
v 0.021616 -0.062736 0.008953
v -0.019453 -0.062736 0.012998
v 0.022947 -0.062736 -0.004564
v -0.012998 -0.062736 -0.019453
v -0.008953 -0.062736 0.021616
v -0.004564 -0.062736 -0.022947
v 0.016544 -0.062736 -0.016544
v 0.004564 -0.062736 0.022947
v -0.021615 -0.062736 -0.008953
v 0.004564 -0.062736 -0.022947
v 0.016544 -0.062736 0.016544
v -0.022947 -0.062736 0.004564
v 0.022947 -0.062736 0.004564
v -0.016544 -0.062736 0.016544
v 0.021615 -0.062736 -0.008953
v -0.016544 -0.062736 -0.016544
v -0.004564 -0.062736 0.022947
v 0.012998 -0.062736 -0.019453
v 0.008953 -0.062736 0.021615
v -0.022947 -0.062736 -0.004564
v 0.000000 -0.062736 -0.023396
v 0.019453 -0.062736 0.012998
v -0.021615 -0.062736 0.008953
v 0.023396 -0.062736 -0.000000
v -0.008953 -0.062736 -0.021616
v -0.012998 -0.062736 0.019453
v -0.000000 0.062001 -0.030000
v -0.005853 0.062001 -0.029424
v -0.011481 0.062001 -0.027716
v -0.016667 0.062001 -0.024944
v -0.021213 0.062001 -0.021213
v -0.024944 0.062001 -0.016667
v -0.027716 0.062001 -0.011481
v -0.029424 0.062001 -0.005853
v -0.030000 0.062001 -0.000000
v -0.029424 0.062001 0.005853
v -0.027716 0.062001 0.011480
v -0.024944 0.062001 0.016667
v -0.021213 0.062001 0.021213
v -0.016667 0.062001 0.024944
v -0.011481 0.062001 0.027716
v -0.005853 0.062001 0.029424
v 0.000000 0.062001 0.030000
v 0.005853 0.062001 0.029424
v 0.011481 0.062001 0.027716
v 0.016667 0.062001 0.024944
v 0.021213 0.062001 0.021213
v 0.024944 0.062001 0.016667
v 0.027716 0.062001 0.011480
v 0.029424 0.062001 0.005853
v 0.030000 0.062001 -0.000000
v 0.029424 0.062001 -0.005853
v 0.027716 0.062001 -0.011481
v 0.024944 0.062001 -0.016667
v 0.021213 0.062001 -0.021213
v 0.016667 0.062001 -0.024944
v 0.011480 0.062001 -0.027716
v 0.005853 0.062001 -0.029424
v -0.002543 -0.078575 -0.012782
v 0.000000 -0.078575 -0.013033
v -0.004987 -0.078575 -0.012041
v -0.007241 -0.078575 -0.010836
v -0.009216 -0.078575 -0.009216
v -0.010836 -0.078575 -0.007241
v -0.012041 -0.078575 -0.004987
v -0.012782 -0.078575 -0.002543
v -0.013033 -0.078575 -0.000000
v -0.012782 -0.078575 0.002543
v -0.012041 -0.078575 0.004987
v -0.010836 -0.078575 0.007241
v -0.009216 -0.078575 0.009216
v -0.007241 -0.078575 0.010836
v -0.004987 -0.078575 0.012041
v -0.002543 -0.078575 0.012782
v 0.000000 -0.078575 0.013033
v 0.002543 -0.078575 0.012782
v 0.004987 -0.078575 0.012041
v 0.007241 -0.078575 0.010836
v 0.009216 -0.078575 0.009216
v 0.010836 -0.078575 0.007241
v 0.012041 -0.078575 0.004987
v 0.012782 -0.078575 0.002543
v 0.013033 -0.078575 -0.000000
v 0.012782 -0.078575 -0.002543
v 0.012041 -0.078575 -0.004987
v 0.010836 -0.078575 -0.007241
v 0.009216 -0.078575 -0.009216
v 0.007241 -0.078575 -0.010836
v 0.004987 -0.078575 -0.012041
v 0.002543 -0.078575 -0.012782
vn 0.000000 -0.072800 -0.997300
vn -0.194600 -0.072800 -0.978100
vn -0.195100 0.000000 -0.980800
vn -0.381700 -0.072800 -0.921400
vn -0.382700 0.000000 -0.923900
vn -0.554100 -0.072800 -0.829200
vn -0.555600 0.000000 -0.831400
vn -0.705200 -0.072800 -0.705200
vn -0.707100 0.000000 -0.707100
vn -0.829200 -0.072800 -0.554100
vn -0.831400 0.000000 -0.555600
vn -0.921400 -0.072800 -0.381700
vn -0.923900 0.000000 -0.382700
vn -0.978100 -0.072800 -0.194600
vn -0.980800 0.000000 -0.195100
vn -0.997300 -0.072800 0.000000
vn -1.000000 0.000000 0.000000
vn -0.978100 -0.072800 0.194600
vn -0.980800 0.000000 0.195100
vn -0.921400 -0.072800 0.381700
vn -0.923900 0.000000 0.382700
vn -0.829200 -0.072800 0.554100
vn -0.831400 0.000000 0.555600
vn -0.705200 -0.072800 0.705200
vn -0.707100 0.000000 0.707100
vn -0.554100 -0.072800 0.829200
vn -0.555600 0.000000 0.831400
vn -0.381700 -0.072800 0.921400
vn -0.382700 0.000000 0.923900
vn -0.194600 -0.072800 0.978100
vn -0.195100 0.000000 0.980800
vn 0.000000 -0.072800 0.997300
vn 0.000000 0.000000 1.000000
vn 0.194600 -0.072800 0.978100
vn 0.195100 0.000000 0.980800
vn 0.381700 -0.072800 0.921400
vn 0.382700 0.000000 0.923900
vn 0.554100 -0.072800 0.829200
vn 0.555600 0.000000 0.831400
vn 0.705200 -0.072800 0.705200
vn 0.829200 -0.072800 0.554100
vn 0.831400 0.000000 0.555600
vn 0.921400 -0.072800 0.381700
vn 0.923900 0.000000 0.382700
vn 0.978100 -0.072800 0.194600
vn 0.980800 0.000000 0.195100
vn 0.997300 -0.072800 0.000000
vn 1.000000 0.000000 0.000000
vn 0.978100 -0.072800 -0.194600
vn 0.921400 -0.072800 -0.381700
vn 0.923900 0.000000 -0.382700
vn 0.829200 -0.072800 -0.554100
vn 0.831400 0.000000 -0.555600
vn 0.705200 -0.072800 -0.705200
vn 0.707100 0.000000 -0.707100
vn 0.554100 -0.072800 -0.829200
vn 0.555600 0.000000 -0.831400
vn 0.381700 -0.072800 -0.921400
vn 0.382700 0.000000 -0.923900
vn 0.760100 -0.405300 -0.507900
vn 0.695800 -0.547500 -0.464900
vn 0.591700 -0.547500 -0.591700
vn 0.194600 -0.072800 -0.978100
vn 0.000000 0.000000 -1.000000
vn 0.195100 0.000000 -0.980800
vn 0.000000 1.000000 0.000000
vn 0.000000 -1.000000 0.000000
vn 0.000000 -0.405300 0.914200
vn 0.000000 -0.547500 0.836800
vn 0.163200 -0.547500 0.820700
vn -0.844600 -0.405300 -0.349800
vn -0.760100 -0.405300 -0.507900
vn -0.695800 -0.547500 -0.464900
vn 0.178300 -0.405300 -0.896600
vn 0.349800 -0.405300 -0.844600
vn 0.320200 -0.547500 -0.773100
vn 0.507900 -0.405300 0.760100
vn 0.464900 -0.547500 0.695800
vn 0.591700 -0.547500 0.591700
vn -0.914200 -0.405300 0.000000
vn -0.836800 -0.547500 0.000000
vn -0.820700 -0.547500 0.163200
vn 0.844600 -0.405300 0.349800
vn 0.773100 -0.547500 0.320200
vn 0.820700 -0.547500 0.163200
vn -0.760100 -0.405300 0.507900
vn -0.695800 -0.547500 0.464900
vn -0.591700 -0.547500 0.591700
vn 0.896600 -0.405300 -0.178300
vn 0.820700 -0.547500 -0.163200
vn 0.773100 -0.547500 -0.320200
vn -0.646400 -0.405300 -0.646400
vn -0.507900 -0.405300 -0.760100
vn -0.464900 -0.547500 -0.695800
vn -0.178300 -0.405300 0.896600
vn -0.349800 -0.405300 0.844600
vn -0.320200 -0.547500 0.773100
vn 0.507900 -0.405300 -0.760100
vn 0.646400 -0.405300 -0.646400
vn 0.178300 -0.405300 0.896600
vn 0.320200 -0.547500 0.773100
vn -0.896600 -0.405300 -0.178300
vn -0.773100 -0.547500 -0.320200
vn 0.163200 -0.547500 -0.820700
vn 0.000000 -0.547500 -0.836800
vn 0.646400 -0.405300 0.646400
vn 0.695800 -0.547500 0.464900
vn -0.896600 -0.405300 0.178300
vn -0.773100 -0.547500 0.320200
vn 0.914200 -0.405300 0.000000
vn 0.896600 -0.405300 0.178300
vn -0.178300 -0.405300 -0.896600
vn -0.163200 -0.547500 -0.820700
vn -0.320200 -0.547500 -0.773100
vn -0.646400 -0.405300 0.646400
vn -0.464900 -0.547500 0.695800
vn 0.844600 -0.405300 -0.349800
vn -0.591700 -0.547500 -0.591700
vn -0.163200 -0.547500 0.820700
vn 0.464900 -0.547500 -0.695800
vn 0.349800 -0.405300 0.844600
vn 0.000000 -0.405300 -0.914200
vn -0.820700 -0.547500 -0.163200
vn 0.760100 -0.405300 0.507900
vn -0.844600 -0.405300 0.349800
vn 0.836800 -0.547500 0.000000
vn -0.349800 -0.405300 -0.844600
vn -0.507900 -0.405300 0.760100
vn -0.544000 -0.202700 0.814200
vn -0.374700 -0.202700 0.904700
vn -0.374700 -0.202700 -0.904700
vn -0.544000 -0.202700 -0.814200
vn 0.979200 -0.202700 0.000000
vn 0.960400 -0.202700 -0.191000
vn -0.904700 -0.202700 0.374700
vn -0.814200 -0.202700 0.544000
vn 0.814200 -0.202700 0.544000
vn 0.904700 -0.202700 0.374700
vn -0.960400 -0.202700 -0.191000
vn -0.979200 -0.202700 0.000000
vn 0.000000 -0.202700 -0.979200
vn -0.191000 -0.202700 -0.960400
vn 0.374700 -0.202700 0.904700
vn 0.544000 -0.202700 0.814200
vn 0.544000 -0.202700 -0.814200
vn -0.191000 -0.202700 0.960400
vn -0.692400 -0.202700 -0.692400
vn -0.814200 -0.202700 -0.544000
vn 0.904700 -0.202700 -0.374700
vn 0.814200 -0.202700 -0.544000
vn -0.692400 -0.202700 0.692400
vn 0.960400 -0.202700 0.191000
vn -0.960400 -0.202700 0.191000
vn 0.692400 -0.202700 0.692400
vn 0.191000 -0.202700 -0.960400
vn -0.904700 -0.202700 -0.374700
vn 0.191000 -0.202700 0.960400
vn 0.692400 -0.202700 -0.692400
vn 0.374700 -0.202700 -0.904700
vn 0.000000 -0.202700 0.979200
vn 0.707100 0.000000 0.707100
vn 0.980800 0.000000 -0.195100
usemtl Material.001
s 1
f 2//1 4//2 3//3
f 4//2 6//4 5//5
f 6//4 8//6 7//7
f 8//6 10//8 9//9
f 10//8 12//10 11//11
f 12//10 14//12 13//13
f 14//12 16//14 15//15
f 16//14 18//16 17//17
f 18//16 20//18 19//19
f 20//18 22//20 21//21
f 22//20 24//22 23//23
f 24//22 26//24 25//25
f 26//24 28//26 27//27
f 28//26 30//28 29//29
f 30//28 32//30 31//31
f 32//30 34//32 33//33
f 34//32 36//34 35//35
f 36//34 38//36 37//37
f 38//36 40//38 39//39
f 39//39 40//38 42//40
f 42//40 44//41 43//42
f 44//41 46//43 45//44
f 46//43 48//45 47//46
f 48//45 50//47 49//48
f 49//48 50//47 52//49
f 52//49 54//50 53//51
f 54//50 56//52 55//53
f 56//52 58//54 57//55
f 58//54 60//56 59//57
f 60//56 62//58 61//59
f 129//60 220//61 93//62
f 64//63 2//1 1//64
f 62//58 64//63 63//65
f 161//66 169//66 177//66
f 65//67 90//67 82//67
f 130//68 209//69 210//70
f 143//71 131//72 198//73
f 144//74 132//75 223//76
f 133//77 212//78 213//79
f 134//80 201//81 202//82
f 135//83 215//84 216//85
f 136//86 204//87 205//88
f 137//89 218//90 219//91
f 150//92 138//93 196//94
f 151//95 139//96 207//97
f 152//98 141//99 93//62
f 142//100 210//70 211//101
f 154//102 143//71 199//103
f 144//74 224//104 194//105
f 145//106 213//79 214//107
f 146//108 202//82 203//109
f 158//110 147//111 216//85
f 140//112 193//113 195//114
f 148//115 205//88 206//116
f 149//117 219//91 220//61
f 131//72 150//92 197//118
f 151//95 208//119 209//69
f 152//98 222//120 223//76
f 133//77 153//121 211//101
f 140//112 155//122 194//105
f 154//102 200//123 201//81
f 156//124 214//107 215//84
f 136//86 157//125 203//109
f 158//110 217//126 218//90
f 159//127 195//114 196//94
f 139//96 160//128 206//116
f 28//26 128//129 118//130
f 6//4 126//131 116//132
f 50//47 125//133 114//134
f 22//20 124//135 112//136
f 44//41 123//137 110//138
f 16//14 121//139 108//140
f 2//1 122//141 127//142
f 38//36 120//143 106//144
f 62//58 60//56 119//145
f 34//32 32//30 117//146
f 10//8 115//147 102//148
f 54//50 113//149 98//150
f 26//24 111//151 128//129
f 6//4 4//2 127//142
f 48//45 109//152 125//133
f 20//18 107//153 124//135
f 42//40 105//154 123//137
f 64//63 103//155 122//141
f 14//12 101//156 121//139
f 36//34 99//157 120//143
f 60//56 58//54 97//158
f 30//28 118//130 117//146
f 10//8 8//6 116//132
f 54//50 52//49 114//134
f 24//22 112//136 111//151
f 48//45 46//43 110//138
f 20//18 18//16 108//140
f 40//38 106//144 105//154
f 64//63 62//58 104//159
f 12//10 102//148 101//156
f 34//32 100//160 99//157
f 58//54 56//52 98//150
f 128//129 160//128 139//96
f 116//132 126//131 159//127
f 125//133 158//110 137//89
f 124//135 157//125 136//86
f 123//137 156//124 135//83
f 121//139 154//102 134//80
f 127//142 122//141 155//122
f 120//143 153//121 133//77
f 119//145 152//98 132//75
f 117//146 151//95 130//68
f 102//148 115//147 150//92
f 98//150 113//149 149//117
f 111//151 148//115 160//128
f 127//142 140//112 159//127
f 125//133 109//152 147//111
f 107//153 146//108 157//125
f 123//137 105//154 145//106
f 103//155 144//74 155//122
f 101//156 143//71 154//102
f 99//157 142//100 153//121
f 97//158 141//99 152//98
f 118//130 139//96 151//95
f 116//132 138//93 150//92
f 114//134 137//89 149//117
f 111//151 112//136 136//86
f 110//138 135//83 147//111
f 108//140 134//80 146//108
f 106//144 133//77 145//106
f 104//159 132//75 144//74
f 101//156 102//148 131//72
f 99//157 100//160 130//68
f 97//158 98//150 129//60
f 1//64 2//1 3//3
f 3//3 4//2 5//5
f 5//5 6//4 7//7
f 7//7 8//6 9//9
f 9//9 10//8 11//11
f 11//11 12//10 13//13
f 13//13 14//12 15//15
f 15//15 16//14 17//17
f 17//17 18//16 19//19
f 19//19 20//18 21//21
f 21//21 22//20 23//23
f 23//23 24//22 25//25
f 25//25 26//24 27//27
f 27//27 28//26 29//29
f 29//29 30//28 31//31
f 31//31 32//30 33//33
f 33//33 34//32 35//35
f 35//35 36//34 37//37
f 37//37 38//36 39//39
f 41//161 39//39 42//40
f 41//161 42//40 43//42
f 43//42 44//41 45//44
f 45//44 46//43 47//46
f 47//46 48//45 49//48
f 51//162 49//48 52//49
f 51//162 52//49 53//51
f 53//51 54//50 55//53
f 55//53 56//52 57//55
f 57//55 58//54 59//57
f 59//57 60//56 61//59
f 141//99 129//60 93//62
f 63//65 64//63 1//64
f 61//59 62//58 63//65
f 189//66 192//66 161//66
f 189//66 190//66 191//66
f 187//66 188//66 189//66
f 185//66 186//66 187//66
f 181//66 184//66 185//66
f 181//66 182//66 183//66
f 179//66 180//66 181//66
f 177//66 178//66 179//66
f 173//66 176//66 177//66
f 173//66 174//66 175//66
f 171//66 172//66 173//66
f 169//66 170//66 171//66
f 167//66 168//66 169//66
f 165//66 166//66 167//66
f 163//66 164//66 165//66
f 165//66 162//66 163//66
f 189//66 191//66 192//66
f 185//66 187//66 189//66
f 181//66 183//66 184//66
f 185//66 179//66 181//66
f 173//66 175//66 176//66
f 177//66 171//66 173//66
f 161//66 167//66 169//66
f 161//66 162//66 165//66
f 185//66 189//66 161//66
f 177//66 179//66 185//66
f 169//66 171//66 177//66
f 161//66 165//66 167//66
f 177//66 185//66 161//66
f 68//67 67//67 65//67
f 65//67 69//67 68//67
f 74//67 71//67 70//67
f 74//67 73//67 72//67
f 76//67 75//67 74//67
f 78//67 77//67 76//67
f 80//67 79//67 78//67
f 78//67 81//67 80//67
f 84//67 83//67 82//67
f 86//67 85//67 84//67
f 88//67 87//67 86//67
f 90//67 89//67 88//67
f 94//67 91//67 90//67
f 94//67 221//67 92//67
f 96//67 95//67 94//67
f 65//67 66//67 96//67
f 70//67 69//67 65//67
f 74//67 72//67 71//67
f 82//67 76//67 74//67
f 82//67 81//67 78//67
f 86//67 84//67 82//67
f 82//67 88//67 86//67
f 94//67 92//67 91//67
f 90//67 96//67 94//67
f 74//67 70//67 65//67
f 82//67 78//67 76//67
f 90//67 88//67 82//67
f 65//67 96//67 90//67
f 82//67 74//67 65//67
f 142//100 130//68 210//70
f 199//103 143//71 198//73
f 224//104 144//74 223//76
f 145//106 133//77 213//79
f 146//108 134//80 202//82
f 147//111 135//83 216//85
f 148//115 136//86 205//88
f 149//117 137//89 219//91
f 197//118 150//92 196//94
f 208//119 151//95 207//97
f 222//120 152//98 93//62
f 153//121 142//100 211//101
f 200//123 154//102 199//103
f 155//122 144//74 194//105
f 156//124 145//106 214//107
f 157//125 146//108 203//109
f 217//126 158//110 216//85
f 159//127 140//112 195//114
f 160//128 148//115 206//116
f 129//60 149//117 220//61
f 198//73 131//72 197//118
f 130//68 151//95 209//69
f 132//75 152//98 223//76
f 212//78 133//77 211//101
f 193//113 140//112 194//105
f 134//80 154//102 201//81
f 135//83 156//124 215//84
f 204//87 136//86 203//109
f 137//89 158//110 218//90
f 138//93 159//127 196//94
f 207//97 139//96 206//116
f 30//28 28//26 118//130
f 8//6 6//4 116//132
f 52//49 50//47 114//134
f 24//22 22//20 112//136
f 46//43 44//41 110//138
f 18//16 16//14 108//140
f 4//2 2//1 127//142
f 40//38 38//36 106//144
f 104//159 62//58 119//145
f 100//160 34//32 117//146
f 12//10 10//8 102//148
f 56//52 54//50 98//150
f 28//26 26//24 128//129
f 126//131 6//4 127//142
f 50//47 48//45 125//133
f 22//20 20//18 124//135
f 44//41 42//40 123//137
f 2//1 64//63 122//141
f 16//14 14//12 121//139
f 38//36 36//34 120//143
f 119//145 60//56 97//158
f 32//30 30//28 117//146
f 115//147 10//8 116//132
f 113//149 54//50 114//134
f 26//24 24//22 111//151
f 109//152 48//45 110//138
f 107//153 20//18 108//140
f 42//40 40//38 105//154
f 103//155 64//63 104//159
f 14//12 12//10 101//156
f 36//34 34//32 99//157
f 97//158 58//54 98//150
f 118//130 128//129 139//96
f 138//93 116//132 159//127
f 114//134 125//133 137//89
f 112//136 124//135 136//86
f 110//138 123//137 135//83
f 108//140 121//139 134//80
f 140//112 127//142 155//122
f 106//144 120//143 133//77
f 104//159 119//145 132//75
f 100//160 117//146 130//68
f 131//72 102//148 150//92
f 129//60 98//150 149//117
f 128//129 111//151 160//128
f 126//131 127//142 159//127
f 158//110 125//133 147//111
f 124//135 107//153 157//125
f 156//124 123//137 145//106
f 122//141 103//155 155//122
f 121//139 101//156 154//102
f 120//143 99//157 153//121
f 119//145 97//158 152//98
f 117//146 118//130 151//95
f 115//147 116//132 150//92
f 113//149 114//134 149//117
f 148//115 111//151 136//86
f 109//152 110//138 147//111
f 107//153 108//140 146//108
f 105//154 106//144 145//106
f 103//155 104//159 144//74
f 143//71 101//156 131//72
f 142//100 99//157 130//68
f 141//99 97//158 129//60
